<?xml version="1.0" encoding="utf-8"?>
<!-- Generator: Adobe Illustrator 18.1.1, SVG Export Plug-In . SVG Version: 6.00 Build 0)  -->
<svg version="1.1" id="Layer_1" xmlns="http://www.w3.org/2000/svg" xmlns:xlink="http://www.w3.org/1999/xlink" x="0px" y="0px"
	 viewBox="-631 353 16 16" enable-background="new -631 353 16 16" xml:space="preserve">
<path fill="#FFFFFF" d="M-620.5,360.5c0,0.3,0,0.6,0,1c-0.6,0-1.3,0-2,0c0,0.8,0,1.3,0,2c-0.3,0-0.6,0-1,0c0-0.6,0-1.3,0-2
	c-0.6,0-1.3,0-2,0c0-0.3,0-0.6,0-1c0.6,0,1.3,0,2,0c0-0.6,0-1.3,0-2c0.3,0,0.6,0,1,0c0,0.6,0,1.3,0,2
	C-621.9,360.5-621.2,360.5-620.5,360.5z"/>
</svg>
